# xmcd
#
# Track frame offsets:
#	150
#	29271
#	55462
#	76627
#	98054
#	120117
#	144286
#
# Disc length: 2228 seconds
#
# Revision: 1
# Processed by: cddbd v1.4PL0 Copyright (c) Steve Scherf et al.
# Submitted via: CDmax 1.8
#
DISCID=4708b207
DTITLE=Peabo Bryson - Crosswinds
DYEAR=1900
DGENRE=R and B Soul
TTITLE0=Crosswinds
TTITLE1=I'm so in to you
TTITLE2=Smile
TTITLE3=Point of View
TTITLE4=Spread your wings
TTITLE5=She's a Woman
TTITLE6=Love is watching you
EXTD=
EXTT0=
EXTT1=
EXTT2=
EXTT3=
EXTT4=
EXTT5=
EXTT6=
PLAYORDER=
